<svg width="41" height="41" viewBox="0 0 41 41" fill="none" xmlns="http://www.w3.org/2000/svg">
<path fill-rule="evenodd" clip-rule="evenodd" d="M16.335 5.19344C17.494 4.20584 18.9562 3.64476 20.4784 3.60352C22.0005 3.56228 23.4909 4.04337 24.7017 4.96677L24.985 5.19344L25.6117 5.72677C26.0678 6.11616 26.6206 6.37526 27.2117 6.47677L27.5084 6.51344L28.33 6.58011C29.8521 6.70155 31.2864 7.34184 32.3931 8.39391C33.4998 9.44598 34.2118 10.8461 34.41 12.3601L34.445 12.6934L34.5117 13.5168C34.5589 14.114 34.7662 14.6874 35.1117 15.1768L35.295 15.4134L35.8317 16.0401C36.8193 17.1991 37.3804 18.6613 37.4216 20.1834C37.4629 21.7056 36.9818 23.196 36.0584 24.4068L35.8317 24.6901L35.2967 25.3168C34.9073 25.7729 34.6482 26.3257 34.5467 26.9168L34.51 27.2134L34.445 28.0351C34.3236 29.5572 33.6833 30.9915 32.6312 32.0982C31.5791 33.2049 30.1791 33.9169 28.665 34.1151L28.33 34.1501L27.5084 34.2168C26.9112 34.264 26.3377 34.4712 25.8484 34.8168L25.6117 35.0018L24.9834 35.5351C23.8245 36.523 22.3625 37.0843 20.8403 37.1259C19.3182 37.1674 17.8277 36.6866 16.6167 35.7634L16.335 35.5368L15.7084 35.0018C15.2522 34.6124 14.6995 34.3533 14.1084 34.2518L13.8117 34.2168L12.99 34.1501C11.4679 34.0287 10.0336 33.3884 8.92694 32.3363C7.82026 31.2842 7.10828 29.8841 6.91003 28.3701L6.87503 28.0368L6.80836 27.2134C6.76116 26.6162 6.55389 26.0428 6.20836 25.5534L6.02336 25.3168L5.48836 24.6884C4.50076 23.5294 3.93968 22.0673 3.89844 20.5451C3.85721 19.023 4.33829 17.5326 5.26169 16.3218L5.48836 16.0401L6.02169 15.4134C6.41108 14.9573 6.67019 14.4045 6.7717 13.8134L6.80836 13.5168L6.87503 12.6951C6.99648 11.173 7.63676 9.73869 8.68883 8.63201C9.74091 7.52533 11.141 6.81335 12.655 6.61511L12.9884 6.58011L13.8117 6.51344C14.4089 6.46624 14.9823 6.25897 15.4717 5.91344L15.7084 5.72844L16.335 5.19344ZM24.8267 22.0318C24.1637 22.0318 23.5278 22.2952 23.0589 22.764C22.5901 23.2328 22.3267 23.8687 22.3267 24.5318C22.3267 25.1948 22.5901 25.8307 23.0589 26.2995C23.5278 26.7684 24.1637 27.0318 24.8267 27.0318C25.4897 27.0318 26.1256 26.7684 26.5945 26.2995C27.0633 25.8307 27.3267 25.1948 27.3267 24.5318C27.3267 23.8687 27.0633 23.2328 26.5945 22.764C26.1256 22.2952 25.4897 22.0318 24.8267 22.0318ZM24.4817 14.1868L14.4817 24.1868C14.3225 24.3405 14.1955 24.5244 14.1082 24.7278C14.0208 24.9311 13.9749 25.1498 13.9729 25.3711C13.971 25.5924 14.0132 25.8119 14.097 26.0167C14.1808 26.2215 14.3046 26.4076 14.461 26.5641C14.6175 26.7206 14.8036 26.8443 15.0084 26.9281C15.2133 27.0119 15.4327 27.0541 15.654 27.0522C15.8753 27.0503 16.094 27.0043 16.2974 26.9169C16.5007 26.8296 16.6846 26.7026 16.8384 26.5434L26.8384 16.5434C27.142 16.2291 27.3099 15.8081 27.3062 15.3711C27.3024 14.9341 27.1271 14.5161 26.8181 14.2071C26.509 13.8981 26.091 13.7228 25.654 13.719C25.217 13.7152 24.796 13.8832 24.4817 14.1868ZM16.4934 13.6984C15.8303 13.6984 15.1944 13.9618 14.7256 14.4307C14.2568 14.8995 13.9934 15.5354 13.9934 16.1984C13.9934 16.8615 14.2568 17.4974 14.7256 17.9662C15.1944 18.435 15.8303 18.6984 16.4934 18.6984C17.1564 18.6984 17.7923 18.435 18.2611 17.9662C18.73 17.4974 18.9934 16.8615 18.9934 16.1984C18.9934 15.5354 18.73 14.8995 18.2611 14.4307C17.7923 13.9618 17.1564 13.6984 16.4934 13.6984Z" fill="url(#paint0_linear_15_73)"/>
<defs>
<linearGradient id="paint0_linear_15_73" x1="3.896" y1="20.3647" x2="37.4241" y2="20.3647" gradientUnits="userSpaceOnUse">
<stop stop-color="#2179B8"/>
<stop offset="1" stop-color="#488A42"/>
</linearGradient>
</defs>
</svg>
